<mxfile host="app.diagrams.net" modified="2023-10-03T10:39:01.579Z" agent="Mozilla/5.0 (Windows NT 10.0; Win64; x64) AppleWebKit/537.36 (KHTML, like Gecko) Chrome/117.0.0.0 Safari/537.36" etag="O2tm0clb5Z7V5aNZaG9d" version="22.0.0" type="github">
  <diagram name="Страница — 1" id="0rFsSWV5bVa63NM5_MFF">
    <mxGraphModel dx="1000" dy="462" grid="1" gridSize="10" guides="1" tooltips="1" connect="1" arrows="1" fold="1" page="1" pageScale="1" pageWidth="827" pageHeight="1169" math="0" shadow="0">
      <root>
        <mxCell id="0" />
        <mxCell id="1" parent="0" />
        <mxCell id="X3c0APTzvyZXx92i1vRk-1" value="Умный дом" style="rounded=0;whiteSpace=wrap;html=1;" parent="1" vertex="1">
          <mxGeometry x="40" y="40" width="150" height="80" as="geometry" />
        </mxCell>
        <mxCell id="X3c0APTzvyZXx92i1vRk-14" value="1" style="edgeStyle=orthogonalEdgeStyle;rounded=0;orthogonalLoop=1;jettySize=auto;html=1;endArrow=diamond;endFill=1;strokeWidth=2;" parent="1" source="X3c0APTzvyZXx92i1vRk-3" target="X3c0APTzvyZXx92i1vRk-6" edge="1">
          <mxGeometry x="-0.6667" y="-10" relative="1" as="geometry">
            <mxPoint as="offset" />
          </mxGeometry>
        </mxCell>
        <mxCell id="X3c0APTzvyZXx92i1vRk-3" value="Конфигурационный каталог" style="rounded=0;whiteSpace=wrap;html=1;" parent="1" vertex="1">
          <mxGeometry x="250" y="250" width="120" height="60" as="geometry" />
        </mxCell>
        <mxCell id="X3c0APTzvyZXx92i1vRk-28" style="edgeStyle=orthogonalEdgeStyle;rounded=0;orthogonalLoop=1;jettySize=auto;html=1;strokeWidth=2;exitX=1;exitY=1;exitDx=0;exitDy=0;entryX=0.5;entryY=0;entryDx=0;entryDy=0;" parent="1" source="X3c0APTzvyZXx92i1vRk-5" target="8mDEXi1Dym2gZVY4ibA4-28" edge="1">
          <mxGeometry relative="1" as="geometry">
            <mxPoint x="680" y="390" as="targetPoint" />
            <Array as="points">
              <mxPoint x="630" y="250" />
              <mxPoint x="630" y="320" />
              <mxPoint x="700" y="320" />
            </Array>
          </mxGeometry>
        </mxCell>
        <mxCell id="AVMxzCmS7xuqCc86pscS-1" style="edgeStyle=orthogonalEdgeStyle;rounded=0;orthogonalLoop=1;jettySize=auto;html=1;entryX=1;entryY=0.5;entryDx=0;entryDy=0;strokeWidth=2;endArrow=diamond;endFill=0;" edge="1" parent="1" source="X3c0APTzvyZXx92i1vRk-5" target="X3c0APTzvyZXx92i1vRk-6">
          <mxGeometry relative="1" as="geometry" />
        </mxCell>
        <mxCell id="X3c0APTzvyZXx92i1vRk-5" value="Суб-сервер/&lt;br&gt;плата" style="rounded=0;whiteSpace=wrap;html=1;" parent="1" vertex="1">
          <mxGeometry x="470" y="190" width="120" height="60" as="geometry" />
        </mxCell>
        <mxCell id="X3c0APTzvyZXx92i1vRk-18" value="1" style="edgeStyle=orthogonalEdgeStyle;rounded=0;orthogonalLoop=1;jettySize=auto;html=1;entryX=1;entryY=0.5;entryDx=0;entryDy=0;endArrow=diamond;endFill=1;strokeWidth=2;" parent="1" source="X3c0APTzvyZXx92i1vRk-6" target="X3c0APTzvyZXx92i1vRk-1" edge="1">
          <mxGeometry x="-0.7143" y="20" relative="1" as="geometry">
            <mxPoint as="offset" />
          </mxGeometry>
        </mxCell>
        <mxCell id="X3c0APTzvyZXx92i1vRk-6" value="Центральный сервер" style="rounded=0;whiteSpace=wrap;html=1;" parent="1" vertex="1">
          <mxGeometry x="250" y="130" width="120" height="60" as="geometry" />
        </mxCell>
        <mxCell id="8mDEXi1Dym2gZVY4ibA4-21" style="edgeStyle=orthogonalEdgeStyle;rounded=0;orthogonalLoop=1;jettySize=auto;html=1;entryX=1;entryY=0;entryDx=0;entryDy=0;endArrow=diamond;endFill=1;strokeWidth=2;" parent="1" source="X3c0APTzvyZXx92i1vRk-8" target="X3c0APTzvyZXx92i1vRk-5" edge="1">
          <mxGeometry relative="1" as="geometry" />
        </mxCell>
        <mxCell id="X3c0APTzvyZXx92i1vRk-8" value="Датчик покзаний" style="rounded=0;whiteSpace=wrap;html=1;" parent="1" vertex="1">
          <mxGeometry x="730" y="150" width="120" height="60" as="geometry" />
        </mxCell>
        <mxCell id="X3c0APTzvyZXx92i1vRk-20" style="edgeStyle=orthogonalEdgeStyle;rounded=0;orthogonalLoop=1;jettySize=auto;html=1;entryX=0.586;entryY=0.015;entryDx=0;entryDy=0;endArrow=diamond;endFill=0;strokeWidth=2;exitX=0;exitY=0.5;exitDx=0;exitDy=0;entryPerimeter=0;" parent="1" source="8mDEXi1Dym2gZVY4ibA4-2" target="X3c0APTzvyZXx92i1vRk-6" edge="1">
          <mxGeometry relative="1" as="geometry">
            <mxPoint x="570" y="60" as="sourcePoint" />
            <mxPoint x="490" y="110" as="targetPoint" />
          </mxGeometry>
        </mxCell>
        <mxCell id="8mDEXi1Dym2gZVY4ibA4-1" value="Заводские устройства" style="swimlane;fontStyle=0;childLayout=stackLayout;horizontal=1;startSize=30;horizontalStack=0;resizeParent=1;resizeParentMax=0;resizeLast=0;collapsible=1;marginBottom=0;whiteSpace=wrap;html=1;" parent="1" vertex="1">
          <mxGeometry x="580" y="20" width="160" height="90" as="geometry">
            <mxRectangle x="580" y="20" width="60" height="30" as="alternateBounds" />
          </mxGeometry>
        </mxCell>
        <mxCell id="8mDEXi1Dym2gZVY4ibA4-2" value="+Бренд: String" style="text;strokeColor=none;fillColor=none;align=left;verticalAlign=middle;spacingLeft=4;spacingRight=4;overflow=hidden;points=[[0,0.5],[1,0.5]];portConstraint=eastwest;rotatable=0;whiteSpace=wrap;html=1;" parent="8mDEXi1Dym2gZVY4ibA4-1" vertex="1">
          <mxGeometry y="30" width="160" height="30" as="geometry" />
        </mxCell>
        <mxCell id="8mDEXi1Dym2gZVY4ibA4-3" value="+Экосистема: String" style="text;strokeColor=none;fillColor=none;align=left;verticalAlign=middle;spacingLeft=4;spacingRight=4;overflow=hidden;points=[[0,0.5],[1,0.5]];portConstraint=eastwest;rotatable=0;whiteSpace=wrap;html=1;" parent="8mDEXi1Dym2gZVY4ibA4-1" vertex="1">
          <mxGeometry y="60" width="160" height="30" as="geometry" />
        </mxCell>
        <mxCell id="8mDEXi1Dym2gZVY4ibA4-27" style="edgeStyle=orthogonalEdgeStyle;rounded=0;orthogonalLoop=1;jettySize=auto;html=1;entryX=1;entryY=0.25;entryDx=0;entryDy=0;strokeWidth=2;endArrow=diamond;endFill=1;" parent="1" source="8mDEXi1Dym2gZVY4ibA4-26" target="X3c0APTzvyZXx92i1vRk-5" edge="1">
          <mxGeometry relative="1" as="geometry" />
        </mxCell>
        <mxCell id="8mDEXi1Dym2gZVY4ibA4-26" value="Элемент управления" style="html=1;whiteSpace=wrap;" parent="1" vertex="1">
          <mxGeometry x="730" y="250" width="110" height="50" as="geometry" />
        </mxCell>
        <mxCell id="8mDEXi1Dym2gZVY4ibA4-28" value="Протокол подключения" style="swimlane;fontStyle=0;childLayout=stackLayout;horizontal=1;startSize=26;fillColor=none;horizontalStack=0;resizeParent=1;resizeParentMax=0;resizeLast=0;collapsible=1;marginBottom=0;whiteSpace=wrap;html=1;" parent="1" vertex="1">
          <mxGeometry x="620" y="400" width="160" height="52" as="geometry" />
        </mxCell>
        <mxCell id="8mDEXi1Dym2gZVY4ibA4-29" value="+ ТипПротокола: String" style="text;strokeColor=none;fillColor=none;align=left;verticalAlign=top;spacingLeft=4;spacingRight=4;overflow=hidden;rotatable=0;points=[[0,0.5],[1,0.5]];portConstraint=eastwest;whiteSpace=wrap;html=1;" parent="8mDEXi1Dym2gZVY4ibA4-28" vertex="1">
          <mxGeometry y="26" width="160" height="26" as="geometry" />
        </mxCell>
      </root>
    </mxGraphModel>
  </diagram>
</mxfile>
